<svg xmlns="http://www.w3.org/2000/svg" viewBox="0 0 25 25" id="figma">
  <g>
    <g>
      <g>
        <g>
          <rect width="13.72" height="13.72" x="5.64" y="5.64" fill="#525967" rx="2" ry="2" style="fill:#525967"></rect>
          <path fill="#454b57" d="M17.36 6.24a1.4 1.4 0 0 1 1.4 1.4v9.72a1.4 1.4 0 0 1-1.4 1.4H7.64a1.4 1.4 0 0 1-1.4-1.4V7.64a1.4 1.4 0 0 1 1.4-1.4h9.72m0-.6H7.64a2 2 0 0 0-2 2v9.72a2 2 0 0 0 2 2h9.72a2 2 0 0 0 2-2V7.64a2 2 0 0 0-2-2z" style="fill:#454b57"></path>
          <path fill="#0acf83" d="M10.79 17.63a1.71 1.71 0 0 0 1.71-1.71v-1.71h-1.71a1.71 1.71 0 1 0 0 3.42z" style="fill:#0acf83"></path>
          <path fill="#a259ff" d="M9.08 12.5a1.71 1.71 0 0 1 1.71-1.71h1.71v3.42h-1.71a1.71 1.71 0 0 1-1.71-1.71z" style="fill:#a259ff"></path>
          <path fill="#f24e1e" d="M9.08 9.08a1.71 1.71 0 0 1 1.71-1.71h1.71v3.42h-1.71a1.71 1.71 0 0 1-1.71-1.71z" style="fill:#f24e1e"></path>
          <path fill="#ff7262" d="M12.5 7.38h1.71a1.71 1.71 0 1 1 0 3.42H12.5z" style="fill:#ff7262"></path>
          <path fill="#1abcfe" d="M15.92 12.5a1.71 1.71 0 1 1-1.71-1.71 1.71 1.71 0 0 1 1.71 1.71z" style="fill:#1abcfe"></path>
        </g>
        <path fill="none" d="M0 0h25v25H0z" style="fill:none"></path>
      </g>
    </g>
  </g>
</svg>
